<svg id="Ebene_1" data-name="Ebene 1" xmlns="http://www.w3.org/2000/svg" viewBox="0 0 153.9 129.48"><defs><style>.cls-1,.cls-2,.cls-3{fill:#424242;}.cls-1,.cls-3{stroke:#fff;}.cls-1,.cls-3,.cls-4{stroke-miterlimit:10;}.cls-1{stroke-width:1.32px;}.cls-3{stroke-width:0.33px;}.cls-4{fill:none;stroke:#424242;stroke-width:1.08px;opacity:0.8;}</style></defs><path class="cls-1" d="M683.58,585.07" transform="translate(-563.07 -439.17)"/><polygon class="cls-2" points="104.81 101.18 104.81 108.56 79.27 74.12 79.23 66.97 104.81 101.18"/><polygon class="cls-2" points="104.81 110.63 104.81 118 79.27 83.56 79.23 76.14 104.81 110.63"/><polygon class="cls-2" points="104.81 120.62 104.81 128 79.23 93.79 79.23 86.14 104.81 120.62"/><polygon class="cls-2" points="49.09 100.91 49.09 108.28 74.64 73.84 74.53 66.61 49.09 100.91"/><polygon class="cls-2" points="49.09 110.35 49.09 117.72 74.64 83.29 74.67 75.87 49.09 110.35"/><polygon class="cls-2" points="49.09 120.34 49.09 127.72 74.67 93.51 74.67 85.86 49.09 120.34"/><polygon class="cls-2" points="79.23 66.97 79.23 74.35 134.16 39.91 134.23 32.5 79.23 66.97"/><polygon class="cls-2" points="79.23 76.42 79.23 83.79 134.16 49.36 134.23 41.94 79.23 76.42"/><polygon class="cls-2" points="79.23 86.41 79.23 93.79 134.16 59.35 134.23 51.93 79.23 86.41"/><polygon class="cls-2" points="74.67 66.7 74.67 74.07 19.74 39.64 19.67 32.22 74.67 66.7"/><polygon class="cls-2" points="74.67 76.14 74.67 83.51 19.74 49.08 19.67 41.66 74.67 76.14"/><polygon class="cls-2" points="74.67 86.14 74.67 93.51 19.74 59.08 19.67 51.66 74.67 86.14"/><path class="cls-3" d="M640.29,569" transform="translate(-563.07 -439.17)"/><path class="cls-1" d="M676.54,563.78" transform="translate(-563.07 -439.17)"/><path class="cls-1" d="M674.27,567.44" transform="translate(-563.07 -439.17)"/><path class="cls-1" d="M671.6,571.05" transform="translate(-563.07 -439.17)"/><rect class="cls-2" x="71.27" y="68.65" width="3.4" height="18.05"/><rect class="cls-2" x="79.23" y="69.97" width="3.4" height="18.05"/><polygon class="cls-4" points="76.95 1.06 0.95 128.94 152.95 128.94 76.95 1.06"/></svg>